HIERARCHY
ROOT Hips
{
	OFFSET 0.000000 0.000000 0.000000 
	CHANNELS 6 Xposition Yposition Zposition Zrotation Yrotation Xrotation
	JOINT LeftUpLeg
	{
		OFFSET 1.363060 -1.794630 0.839290 
		CHANNELS 3 Zrotation Yrotation Xrotation
		JOINT LeftLeg
		{
			OFFSET 2.448110 -6.726130 0.000000 
			CHANNELS 3 Zrotation Yrotation Xrotation
			JOINT LeftFoot
			{
				OFFSET 2.562200 -7.039590 0.000000 
				CHANNELS 3 Zrotation Yrotation Xrotation
				JOINT LeftToeBase
				{
					OFFSET 0.157640 -0.433110 2.322550 
					CHANNELS 3 Zrotation Yrotation Xrotation
					End Site
					{
						OFFSET 0.000000 0.000000 0.000000 
					}
				}
			}
		}
	}
	JOINT RightUpLeg
	{
		OFFSET -1.305520 -1.794630 0.839290 
		CHANNELS 3 Zrotation Yrotation Xrotation
		JOINT RightLeg
		{
			OFFSET -2.542530 -6.985550 0.000000 
			CHANNELS 3 Zrotation Yrotation Xrotation
			JOINT RightFoot
			{
				OFFSET -2.568260 -7.056230 0.000000 
				CHANNELS 3 Zrotation Yrotation Xrotation
				JOINT RightToeBase
				{
					OFFSET -0.164730 -0.452590 2.363150 
					CHANNELS 3 Zrotation Yrotation Xrotation
					End Site
					{
						OFFSET 0.000000 0.000000 0.000000 
					}
				}
			}
		}
	}
	JOINT Spine
	{
		OFFSET 0.028270 2.035590 -0.193380 
		CHANNELS 3 Zrotation Yrotation Xrotation
		JOINT Spine1
		{
			OFFSET 0.056720 2.048850 -0.042750 
			CHANNELS 3 Zrotation Yrotation Xrotation
			JOINT Neck1
			{
				OFFSET -0.054170 1.746240 0.172020 
				CHANNELS 3 Zrotation Yrotation Xrotation
				JOINT Head
				{
					OFFSET 0.104070 1.761360 -0.123970 
					CHANNELS 3 Zrotation Yrotation Xrotation
					End Site
					{
						OFFSET 0.000000 0.000000 0.000000 
					}
				}
			}
			JOINT LeftArm
			{
				OFFSET 3.362410 1.200890 -0.311210 
				CHANNELS 3 Zrotation Yrotation Xrotation
				JOINT LeftForeArm
				{
					OFFSET 4.983000 -0.000000 -0.000000 
					CHANNELS 3 Zrotation Yrotation Xrotation
					JOINT LeftHand
					{
						OFFSET 3.483560 -0.000000 -0.000000 
						CHANNELS 3 Zrotation Yrotation Xrotation
						JOINT LeftHandIndex1
						{
							OFFSET 0.715260 -0.000000 -0.000000 
							CHANNELS 3 Zrotation Yrotation Xrotation
							End Site
							{
								OFFSET 0.000000 0.000000 0.000000 
							}
						}
					}
				}
			}
			JOINT RightArm
			{
				OFFSET -3.136600 1.374050 -0.404650 
				CHANNELS 3 Zrotation Yrotation Xrotation
				JOINT RightForeArm
				{
					OFFSET -5.241900 -0.000000 -0.000000 
					CHANNELS 3 Zrotation Yrotation Xrotation
					JOINT RightHand
					{
						OFFSET -3.444170 -0.000000 -0.000000 
						CHANNELS 3 Zrotation Yrotation Xrotation
						JOINT RightHandIndex1
						{
							OFFSET -0.622530 -0.000000 -0.000000 
							CHANNELS 3 Zrotation Yrotation Xrotation
							End Site
							{
								OFFSET 0.000000 0.000000 0.000000 
							}
						}
					}
				}
			}
		}
	}
}
MOTION
Frames: 13
Frame Time: 0.041667
48.792768 17.157980 -7.899688 -11.283256 -83.786242 13.057790 -20.189036 -0.816567 -5.029958 0.770142 7.437604 22.459842 0.109367 3.681640 -13.408737 0.113800 -2.174900 -5.989300 29.468025 5.764021 -5.788498 -3.554969 -10.974671 33.032304 -1.770508 1.138067 -23.917231 -0.578300 -4.869500 13.536600 0.701292 -0.110827 -1.617948 -0.136020 -0.381463 6.274125 6.896490 -0.414569 7.637742 2.154400 0.125400 4.377100 -76.600575 -1.914919 29.960239 13.079949 -21.528803 -3.467847 -1.252931 -0.929952 -8.954478 -7.125000 0.000000 0.000000 74.397960 -3.062309 22.720151 -13.311293 23.570891 -3.553442 0.508269 -0.691138 -2.795905 7.125000 0.000000 0.000000 
48.793697 17.157567 -7.899275 -11.195193 -83.808284 12.960730 -20.203000 -0.779843 -5.028197 0.769083 7.435506 22.453115 0.113805 3.654275 -13.410175 0.112100 -2.159100 -5.945700 29.450050 5.770398 -5.786833 -3.557743 -10.978598 33.045997 -1.772277 1.155944 -23.918324 -0.577200 -4.865200 13.524500 0.703973 -0.116439 -1.611498 -0.119341 -0.386301 6.292406 6.864275 -0.417652 7.602475 2.132100 0.121400 4.351700 -76.610093 -2.009523 29.961275 12.969394 -21.398534 -3.423424 -1.254668 -0.923031 -8.975776 -7.125000 0.000000 0.000000 74.361417 -3.014897 22.736985 -13.304269 23.561314 -3.551615 0.512374 -0.690462 -2.819886 7.125000 0.000000 0.000000 
48.794523 17.158290 -7.899275 -11.151384 -83.817219 12.928327 -20.211583 -0.782943 -5.037444 0.768001 7.434013 22.447384 0.111063 3.667487 -13.402373 0.112400 -2.161900 -5.953400 29.440087 5.771437 -5.813329 -3.559113 -10.980514 33.050789 -1.769600 1.094742 -23.941247 -0.548100 -4.742800 13.176500 0.704099 -0.119713 -1.615381 -0.113089 -0.386199 6.259604 6.869141 -0.413744 7.576142 2.141200 0.120700 4.314800 -76.664067 -1.919161 29.883750 12.972791 -21.406111 -3.425450 -1.252352 -0.922653 -8.907791 -7.125000 0.000000 0.000000 74.361142 -3.064772 22.743596 -13.314767 23.576361 -3.556046 0.511458 -0.690727 -2.835115 7.125000 0.000000 0.000000 
48.795556 17.158497 -7.898965 -11.148638 -83.817234 12.920643 -20.214603 -0.788782 -5.035302 0.767446 7.432496 22.443114 0.107769 3.686174 -13.398102 0.114300 -2.179300 -6.001500 29.436336 5.768676 -5.813909 -3.559909 -10.981853 33.055564 -1.771619 1.137030 -23.927709 -0.559000 -4.789200 13.308200 0.707966 -0.140862 -1.618827 -0.096994 -0.396798 6.231808 6.874075 -0.393249 7.570232 2.151100 0.129100 4.301100 -76.707846 -1.945877 29.775338 12.861314 -21.276113 -3.383980 -1.256851 -0.914482 -8.850336 -7.125000 0.000000 0.000000 74.335853 -3.072242 22.780940 -13.314215 23.574597 -3.554691 0.510995 -0.690187 -2.836355 7.125000 0.000000 0.000000 
48.796382 17.158703 -7.898759 -11.124269 -83.824114 12.893106 -20.219623 -0.782584 -5.037015 0.767114 7.431640 22.440388 0.106210 3.693411 -13.393046 0.115100 -2.187600 -6.024400 29.430169 5.769437 -5.816112 -3.560556 -10.982437 33.058144 -1.771877 1.137813 -23.928356 -0.556400 -4.777900 13.276300 0.709974 -0.150789 -1.621131 -0.086125 -0.401421 6.206040 6.873484 -0.384702 7.554194 2.154700 0.131300 4.278300 -76.750864 -1.954627 29.674300 12.771604 -21.171518 -3.350241 -1.258706 -0.907641 -8.775105 -7.125000 0.000000 0.000000 74.322282 -3.091108 22.800658 -13.318591 23.579374 -3.555545 0.509335 -0.690125 -2.845803 7.125000 0.000000 0.000000 
48.797104 17.158806 -7.898656 -11.124533 -83.829707 12.888586 -20.221451 -0.777832 -5.038271 0.767259 7.431541 22.440454 0.104800 3.700727 -13.389750 0.115900 -2.194800 -6.044200 29.428007 5.771219 -5.815197 -3.560855 -10.982569 33.059299 -1.771748 1.136800 -23.928257 -0.555000 -4.772200 13.259900 0.711804 -0.159228 -1.623910 -0.077223 -0.405199 6.177732 6.874982 -0.376608 7.541107 2.159300 0.133500 4.257400 -76.794692 -1.958333 29.566510 12.681588 -21.066570 -3.316462 -1.260438 -0.900094 -8.687535 -7.125000 0.000000 0.000000 74.313034 -3.114891 22.817862 -13.323630 23.584955 -3.556486 0.507070 -0.690165 -2.852338 7.125000 0.000000 0.000000 
48.797827 17.158806 -7.898552 -11.131833 -83.832920 12.890503 -20.221876 -0.773398 -5.039443 0.767493 7.431615 22.440984 0.103637 3.705762 -13.385731 0.116400 -2.199800 -6.058100 29.427489 5.772870 -5.813429 -3.561117 -10.982817 33.060540 -1.771667 1.136678 -23.927814 -0.555200 -4.773000 13.262300 0.713079 -0.166293 -1.626401 -0.072108 -0.408231 6.151630 6.877241 -0.371633 7.530530 2.163100 0.134500 4.239500 -76.832070 -1.958092 29.474524 12.599191 -20.970469 -3.285599 -1.261811 -0.893441 -8.608480 -7.125000 0.000000 0.000000 74.308844 -3.136515 22.830687 -13.328402 23.590273 -3.557664 0.505632 -0.690147 -2.855811 7.125000 0.000000 0.000000 
48.798447 17.158910 -7.898449 -11.136882 -83.835083 12.890860 -20.222206 -0.770636 -5.040593 0.767699 7.431693 22.441667 0.102686 3.710571 -13.382434 0.116700 -2.202400 -6.065400 29.427425 5.775314 -5.812240 -3.561383 -10.982891 33.061377 -1.771518 1.133646 -23.928193 -0.555300 -4.773200 13.262900 0.713982 -0.171119 -1.628977 -0.068293 -0.410012 6.125762 6.879251 -0.369671 7.521135 2.165900 0.134300 4.223200 -76.866582 -1.942042 29.404768 12.535408 -20.896924 -3.261718 -1.262509 -0.888314 -8.542905 -7.125000 0.000000 0.000000 74.307726 -3.161150 22.840707 -13.333951 23.596834 -3.559362 0.504529 -0.690282 -2.860706 7.125000 0.000000 0.000000 
48.799170 17.158910 -7.898346 -11.153181 -83.835368 12.902861 -20.221323 -0.771068 -5.040789 0.767882 7.431738 22.442117 0.101833 3.715036 -13.380958 0.116600 -2.201500 -6.062900 29.429170 5.778312 -5.811737 -3.561481 -10.983159 33.062171 -1.771151 1.130443 -23.927938 -0.555700 -4.775000 13.267800 0.714772 -0.175608 -1.631211 -0.065424 -0.411554 6.102410 6.883696 -0.368512 7.512446 2.170100 0.133800 4.207400 -76.897730 -1.913358 29.354679 12.488517 -20.844084 -3.244497 -1.263097 -0.885104 -8.491187 -7.125000 0.000000 0.000000 74.307474 -3.186097 22.852274 -13.339093 23.603342 -3.561163 0.504118 -0.690379 -2.866205 7.125000 0.000000 0.000000 
48.799892 17.159013 -7.898139 -11.140081 -83.835447 12.889280 -20.224583 -0.777476 -5.041623 0.767770 7.431790 22.442098 0.101191 3.720118 -13.382419 0.116100 -2.196500 -6.049000 29.426808 5.781056 -5.815725 -3.561682 -10.983414 33.063129 -1.770735 1.129653 -23.925117 -0.556600 -4.779000 13.279200 0.715595 -0.180236 -1.633042 -0.060239 -0.413330 6.084860 6.887747 -0.367458 7.505200 2.173800 0.133500 4.194600 -76.925959 -1.872387 29.333265 12.462984 -20.817398 -3.235440 -1.263451 -0.884162 -8.466832 -7.125000 0.000000 0.000000 74.305218 -3.206196 22.864099 -13.343872 23.609317 -3.562973 0.504421 -0.690297 -2.872414 7.125000 0.000000 0.000000 
48.800718 17.159116 -7.897933 -11.116333 -83.835447 12.866957 -20.229159 -0.786001 -5.044062 0.767472 7.431854 22.441364 0.100128 3.727306 -13.383951 0.115600 -2.192300 -6.037400 29.423547 5.785529 -5.821311 -3.561989 -10.983936 33.064302 -1.770413 1.129146 -23.923694 -0.557900 -4.784500 13.294900 0.716522 -0.185014 -1.634745 -0.053718 -0.415284 6.068944 6.891458 -0.366781 7.497486 2.176900 0.133000 4.181900 -76.953896 -1.831622 29.314980 12.440432 -20.794324 -3.227653 -1.264060 -0.883660 -8.443546 -7.125000 0.000000 0.000000 74.301076 -3.225203 22.877785 -13.347904 23.614150 -3.564297 0.504130 -0.690236 -2.878136 7.125000 0.000000 0.000000 
48.801544 17.159219 -7.897726 -11.100030 -83.836513 12.853703 -20.233138 -0.792854 -5.047701 0.767258 7.431853 22.440544 0.099472 3.732529 -13.385096 0.115000 -2.186800 -6.022300 29.420456 5.790773 -5.828391 -3.562047 -10.984348 33.065121 -1.769845 1.127656 -23.920630 -0.558900 -4.788700 13.306700 0.717744 -0.190300 -1.636076 -0.045879 -0.417631 6.057605 6.895542 -0.366073 7.491753 2.180700 0.132800 4.172300 -76.982274 -1.794023 29.297787 12.420656 -20.774528 -3.221054 -1.264727 -0.883539 -8.425048 -7.125000 0.000000 0.000000 74.293660 -3.239103 22.893796 -13.350215 23.616788 -3.564588 0.503184 -0.690176 -2.886223 7.125000 0.000000 0.000000 
48.802474 17.159323 -7.897416 -11.065203 -83.837648 12.822833 -20.239374 -0.798540 -5.052592 0.766885 7.431953 22.439621 0.098954 3.735720 -13.385587 0.114400 -2.180900 -6.005800 29.413654 5.792330 -5.837386 -3.562288 -10.984698 33.065662 -1.769167 1.125791 -23.917428 -0.558600 -4.787500 13.303300 0.718443 -0.194233 -1.637430 -0.038947 -0.419339 6.047979 6.902058 -0.368296 7.490400 2.186500 0.131300 4.166700 -77.007713 -1.756202 29.287218 12.403849 -20.757905 -3.215231 -1.265065 -0.883730 -8.413825 -7.125000 0.000000 0.000000 74.288437 -3.252292 22.904629 -13.352522 23.619405 -3.564762 0.501950 -0.689918 -2.891592 7.125000 0.000000 0.000000 
